<svg width="18" height="18" viewBox="0 0 18 18" fill="none" xmlns="http://www.w3.org/2000/svg">
<path d="M8.9375 0C7.16983 0 5.44186 0.524175 3.9721 1.50624C2.50233 2.48831 1.35679 3.88415 0.680331 5.51727C0.00387248 7.15038 -0.17312 8.94742 0.171736 10.6811C0.516591 12.4148 1.36781 14.0073 2.61774 15.2573C3.86767 16.5072 5.46018 17.3584 7.19388 17.7033C8.92759 18.0481 10.7246 17.8711 12.3577 17.1947C13.9909 16.5182 15.3867 15.3727 16.3688 13.9029C17.3508 12.4331 17.875 10.7052 17.875 8.9375C17.8725 6.5679 16.9301 4.29606 15.2545 2.6205C13.5789 0.944933 11.3071 0.00250234 8.9375 0ZM11.4864 9.42391L8.04891 12.8614C7.98503 12.9253 7.9092 12.976 7.82575 13.0105C7.74229 13.0451 7.65284 13.0629 7.5625 13.0629C7.47217 13.0629 7.38272 13.0451 7.29926 13.0105C7.21581 12.976 7.13997 12.9253 7.0761 12.8614C7.01222 12.7975 6.96155 12.7217 6.92698 12.6382C6.89241 12.5548 6.87462 12.4653 6.87462 12.375C6.87462 12.2847 6.89241 12.1952 6.92698 12.1118C6.96155 12.0283 7.01222 11.9525 7.0761 11.8886L10.0281 8.9375L7.0761 5.98641C6.94709 5.8574 6.87462 5.68244 6.87462 5.5C6.87462 5.31756 6.94709 5.1426 7.0761 5.01359C7.2051 4.88459 7.38007 4.81212 7.5625 4.81212C7.74494 4.81212 7.91991 4.88459 8.04891 5.01359L11.4864 8.45109C11.5503 8.51494 11.601 8.59077 11.6356 8.67423C11.6702 8.75769 11.688 8.84715 11.688 8.9375C11.688 9.02785 11.6702 9.11731 11.6356 9.20077C11.601 9.28423 11.5503 9.36006 11.4864 9.42391Z" fill="#299D6B"/>
</svg>
