<svg width="106" height="22" viewBox="0 0 106 22" fill="none" xmlns="http://www.w3.org/2000/svg">
<mask id="path-1-inside-1_6875_9955" fill="white">
<path d="M0 8C0 3.58172 3.58172 0 8 0H98C102.418 0 106 3.58172 106 8V14C106 18.4183 102.418 22 98 22H8C3.58172 22 0 18.4183 0 14V8Z"/>
</mask>
<path d="M0 8C0 3.58172 3.58172 0 8 0H98C102.418 0 106 3.58172 106 8V14C106 18.4183 102.418 22 98 22H8C3.58172 22 0 18.4183 0 14V8Z" fill="url(#paint0_linear_6875_9955)"/>
<g clip-path="url(#paint1_angular_6875_9955_clip_path)" data-figma-skip-parse="true" mask="url(#path-1-inside-1_6875_9955)"><g transform="matrix(0.053 0 0 0.011 53 11)"><foreignObject x="-1090.91" y="-1090.91" width="2181.82" height="2181.82"><div xmlns="http://www.w3.org/1999/xhtml" style="background:conic-gradient(from 90deg,rgba(249, 112, 102, 1) 0deg,rgba(217, 45, 32, 1) 32.1942deg,rgba(249, 112, 102, 1) 66.5883deg,rgba(249, 112, 102, 1) 166.032deg,rgba(217, 45, 32, 1) 216.744deg,rgba(249, 112, 102, 1) 251.632deg,rgba(249, 112, 102, 1) 360deg);height:100%;width:100%;opacity:1"></div></foreignObject></g></g><path d="M8 0V1H98V0V-1H8V0ZM106 8H105V14H106H107V8H106ZM98 22V21H8V22V23H98V22ZM0 14H1V8H0H-1V14H0ZM8 22V21C4.13401 21 1 17.866 1 14H0H-1C-1 18.9706 3.02944 23 8 23V22ZM106 14H105C105 17.866 101.866 21 98 21V22V23C102.971 23 107 18.9706 107 14H106ZM98 0V1C101.866 1 105 4.13401 105 8H106H107C107 3.02944 102.971 -1 98 -1V0ZM8 0V-1C3.02944 -1 -1 3.02944 -1 8H0H1C1 4.13401 4.13401 1 8 1V0Z" data-figma-gradient-fill="{&#34;type&#34;:&#34;GRADIENT_ANGULAR&#34;,&#34;stops&#34;:[{&#34;color&#34;:{&#34;r&#34;:0.85098040103912354,&#34;g&#34;:0.17647059261798859,&#34;b&#34;:0.12549020349979401,&#34;a&#34;:1.0},&#34;position&#34;:0.089428275823593140},{&#34;color&#34;:{&#34;r&#34;:0.97647058963775635,&#34;g&#34;:0.43921568989753723,&#34;b&#34;:0.40000000596046448,&#34;a&#34;:1.0},&#34;position&#34;:0.18496739864349365},{&#34;color&#34;:{&#34;r&#34;:0.97647058963775635,&#34;g&#34;:0.43921568989753723,&#34;b&#34;:0.40000000596046448,&#34;a&#34;:1.0},&#34;position&#34;:0.46120044589042664},{&#34;color&#34;:{&#34;r&#34;:0.85098040103912354,&#34;g&#34;:0.17647059261798859,&#34;b&#34;:0.12549020349979401,&#34;a&#34;:1.0},&#34;position&#34;:0.60206615924835205},{&#34;color&#34;:{&#34;r&#34;:0.97647058963775635,&#34;g&#34;:0.43921568989753723,&#34;b&#34;:0.40000000596046448,&#34;a&#34;:1.0},&#34;position&#34;:0.69897788763046265},{&#34;color&#34;:{&#34;r&#34;:0.97647058963775635,&#34;g&#34;:0.43921568989753723,&#34;b&#34;:0.40000000596046448,&#34;a&#34;:1.0},&#34;position&#34;:1.0}],&#34;transform&#34;:{&#34;m00&#34;:106.0,&#34;m01&#34;:0.0,&#34;m02&#34;:0.0,&#34;m10&#34;:0.0,&#34;m11&#34;:22.0,&#34;m12&#34;:0.0},&#34;opacity&#34;:1.0,&#34;blendMode&#34;:&#34;NORMAL&#34;,&#34;stopsVar&#34;:[{&#34;color&#34;:{&#34;r&#34;:0.85098040103912354,&#34;g&#34;:0.17647059261798859,&#34;b&#34;:0.12549020349979401,&#34;a&#34;:1.0},&#34;position&#34;:0.089428275823593140},{&#34;color&#34;:{&#34;r&#34;:0.97647058963775635,&#34;g&#34;:0.43921568989753723,&#34;b&#34;:0.40000000596046448,&#34;a&#34;:1.0},&#34;position&#34;:0.18496739864349365},{&#34;color&#34;:{&#34;r&#34;:0.97647058963775635,&#34;g&#34;:0.43921568989753723,&#34;b&#34;:0.40000000596046448,&#34;a&#34;:1.0},&#34;position&#34;:0.46120044589042664},{&#34;color&#34;:{&#34;r&#34;:0.85098040103912354,&#34;g&#34;:0.17647059261798859,&#34;b&#34;:0.12549020349979401,&#34;a&#34;:1.0},&#34;position&#34;:0.60206615924835205},{&#34;color&#34;:{&#34;r&#34;:0.97647058963775635,&#34;g&#34;:0.43921568989753723,&#34;b&#34;:0.40000000596046448,&#34;a&#34;:1.0},&#34;position&#34;:0.69897788763046265},{&#34;color&#34;:{&#34;r&#34;:0.97647058963775635,&#34;g&#34;:0.43921568989753723,&#34;b&#34;:0.40000000596046448,&#34;a&#34;:1.0},&#34;position&#34;:1.0}],&#34;visible&#34;:true}" mask="url(#path-1-inside-1_6875_9955)"/>
<path d="M15.7363 6.46875V15H14.5996L10.3047 8.41992V15H9.17383V6.46875H10.3047L14.6172 13.0664V6.46875H15.7363ZM20.457 15.1172C20.0156 15.1172 19.6152 15.043 19.2559 14.8945C18.9004 14.7422 18.5938 14.5293 18.3359 14.2559C18.082 13.9824 17.8867 13.6582 17.75 13.2832C17.6133 12.9082 17.5449 12.498 17.5449 12.0527V11.8066C17.5449 11.291 17.6211 10.832 17.7734 10.4297C17.9258 10.0234 18.1328 9.67969 18.3945 9.39844C18.6562 9.11719 18.9531 8.9043 19.2852 8.75977C19.6172 8.61523 19.9609 8.54297 20.3164 8.54297C20.7695 8.54297 21.1602 8.62109 21.4883 8.77734C21.8203 8.93359 22.0918 9.15234 22.3027 9.43359C22.5137 9.71094 22.6699 10.0391 22.7715 10.418C22.873 10.793 22.9238 11.2031 22.9238 11.6484V12.1348H18.1895V11.25H21.8398V11.168C21.8242 10.8867 21.7656 10.6133 21.6641 10.3477C21.5664 10.082 21.4102 9.86328 21.1953 9.69141C20.9805 9.51953 20.6875 9.43359 20.3164 9.43359C20.0703 9.43359 19.8438 9.48633 19.6367 9.5918C19.4297 9.69336 19.252 9.8457 19.1035 10.0488C18.9551 10.252 18.8398 10.5 18.7578 10.793C18.6758 11.0859 18.6348 11.4238 18.6348 11.8066V12.0527C18.6348 12.3535 18.6758 12.6367 18.7578 12.9023C18.8438 13.1641 18.9668 13.3945 19.127 13.5938C19.291 13.793 19.4883 13.9492 19.7188 14.0625C19.9531 14.1758 20.2188 14.2324 20.5156 14.2324C20.8984 14.2324 21.2227 14.1543 21.4883 13.998C21.7539 13.8418 21.9863 13.6328 22.1855 13.3711L22.8418 13.8926C22.7051 14.0996 22.5312 14.2969 22.3203 14.4844C22.1094 14.6719 21.8496 14.8242 21.541 14.9414C21.2363 15.0586 20.875 15.1172 20.457 15.1172ZM27.0703 15.1172C26.6289 15.1172 26.2285 15.043 25.8691 14.8945C25.5137 14.7422 25.207 14.5293 24.9492 14.2559C24.6953 13.9824 24.5 13.6582 24.3633 13.2832C24.2266 12.9082 24.1582 12.498 24.1582 12.0527V11.8066C24.1582 11.291 24.2344 10.832 24.3867 10.4297C24.5391 10.0234 24.7461 9.67969 25.0078 9.39844C25.2695 9.11719 25.5664 8.9043 25.8984 8.75977C26.2305 8.61523 26.5742 8.54297 26.9297 8.54297C27.3828 8.54297 27.7734 8.62109 28.1016 8.77734C28.4336 8.93359 28.7051 9.15234 28.916 9.43359C29.127 9.71094 29.2832 10.0391 29.3848 10.418C29.4863 10.793 29.5371 11.2031 29.5371 11.6484V12.1348H24.8027V11.25H28.4531V11.168C28.4375 10.8867 28.3789 10.6133 28.2773 10.3477C28.1797 10.082 28.0234 9.86328 27.8086 9.69141C27.5938 9.51953 27.3008 9.43359 26.9297 9.43359C26.6836 9.43359 26.457 9.48633 26.25 9.5918C26.043 9.69336 25.8652 9.8457 25.7168 10.0488C25.5684 10.252 25.4531 10.5 25.3711 10.793C25.2891 11.0859 25.248 11.4238 25.248 11.8066V12.0527C25.248 12.3535 25.2891 12.6367 25.3711 12.9023C25.457 13.1641 25.5801 13.3945 25.7402 13.5938C25.9043 13.793 26.1016 13.9492 26.332 14.0625C26.5664 14.1758 26.832 14.2324 27.1289 14.2324C27.5117 14.2324 27.8359 14.1543 28.1016 13.998C28.3672 13.8418 28.5996 13.6328 28.7988 13.3711L29.4551 13.8926C29.3184 14.0996 29.1445 14.2969 28.9336 14.4844C28.7227 14.6719 28.4629 14.8242 28.1543 14.9414C27.8496 15.0586 27.4883 15.1172 27.0703 15.1172ZM35.0488 13.7695V6H36.1387V15H35.1426L35.0488 13.7695ZM30.7832 11.9004V11.7773C30.7832 11.293 30.8418 10.8535 30.959 10.459C31.0801 10.0605 31.25 9.71875 31.4688 9.43359C31.6914 9.14844 31.9551 8.92969 32.2598 8.77734C32.5684 8.62109 32.9121 8.54297 33.291 8.54297C33.6895 8.54297 34.0371 8.61328 34.334 8.75391C34.6348 8.89062 34.8887 9.0918 35.0957 9.35742C35.3066 9.61914 35.4727 9.93555 35.5938 10.3066C35.7148 10.6777 35.7988 11.0977 35.8457 11.5664V12.1055C35.8027 12.5703 35.7188 12.9883 35.5938 13.3594C35.4727 13.7305 35.3066 14.0469 35.0957 14.3086C34.8887 14.5703 34.6348 14.7715 34.334 14.9121C34.0332 15.0488 33.6816 15.1172 33.2793 15.1172C32.9082 15.1172 32.5684 15.0371 32.2598 14.877C31.9551 14.7168 31.6914 14.4922 31.4688 14.2031C31.25 13.9141 31.0801 13.5742 30.959 13.1836C30.8418 12.7891 30.7832 12.3613 30.7832 11.9004ZM31.873 11.7773V11.9004C31.873 12.2168 31.9043 12.5137 31.9668 12.791C32.0332 13.0684 32.1348 13.3125 32.2715 13.5234C32.4082 13.7344 32.582 13.9004 32.793 14.0215C33.0039 14.1387 33.2559 14.1973 33.5488 14.1973C33.9082 14.1973 34.2031 14.1211 34.4336 13.9688C34.668 13.8164 34.8555 13.6152 34.9961 13.3652C35.1367 13.1152 35.2461 12.8438 35.3242 12.5508V11.1387C35.2773 10.9238 35.209 10.7168 35.1191 10.5176C35.0332 10.3145 34.9199 10.1348 34.7793 9.97852C34.6426 9.81836 34.4727 9.69141 34.2695 9.59766C34.0703 9.50391 33.834 9.45703 33.5605 9.45703C33.2637 9.45703 33.0078 9.51953 32.793 9.64453C32.582 9.76562 32.4082 9.93359 32.2715 10.1484C32.1348 10.3594 32.0332 10.6055 31.9668 10.8867C31.9043 11.1641 31.873 11.4609 31.873 11.7773ZM41.7676 13.3184C41.7676 13.1621 41.7324 13.0176 41.6621 12.8848C41.5957 12.748 41.457 12.625 41.2461 12.5156C41.0391 12.4023 40.7266 12.3047 40.3086 12.2227C39.957 12.1484 39.6387 12.0605 39.3535 11.959C39.0723 11.8574 38.832 11.7344 38.6328 11.5898C38.4375 11.4453 38.2871 11.2754 38.1816 11.0801C38.0762 10.8848 38.0234 10.6562 38.0234 10.3945C38.0234 10.1445 38.0781 9.9082 38.1875 9.68555C38.3008 9.46289 38.459 9.26562 38.6621 9.09375C38.8691 8.92188 39.1172 8.78711 39.4062 8.68945C39.6953 8.5918 40.0176 8.54297 40.373 8.54297C40.8809 8.54297 41.3145 8.63281 41.6738 8.8125C42.0332 8.99219 42.3086 9.23242 42.5 9.5332C42.6914 9.83008 42.7871 10.1602 42.7871 10.5234H41.7031C41.7031 10.3477 41.6504 10.1777 41.5449 10.0137C41.4434 9.8457 41.293 9.70703 41.0938 9.59766C40.8984 9.48828 40.6582 9.43359 40.373 9.43359C40.0723 9.43359 39.8281 9.48047 39.6406 9.57422C39.457 9.66406 39.3223 9.7793 39.2363 9.91992C39.1543 10.0605 39.1133 10.209 39.1133 10.3652C39.1133 10.4824 39.1328 10.5879 39.1719 10.6816C39.2148 10.7715 39.2891 10.8555 39.3945 10.9336C39.5 11.0078 39.6484 11.0781 39.8398 11.1445C40.0312 11.2109 40.2754 11.2773 40.5723 11.3438C41.0918 11.4609 41.5195 11.6016 41.8555 11.7656C42.1914 11.9297 42.4414 12.1309 42.6055 12.3691C42.7695 12.6074 42.8516 12.8965 42.8516 13.2363C42.8516 13.5137 42.793 13.7676 42.6758 13.998C42.5625 14.2285 42.3965 14.4277 42.1777 14.5957C41.9629 14.7598 41.7051 14.8887 41.4043 14.9824C41.1074 15.0723 40.7734 15.1172 40.4023 15.1172C39.8438 15.1172 39.3711 15.0176 38.9844 14.8184C38.5977 14.6191 38.3047 14.3613 38.1055 14.0449C37.9062 13.7285 37.8066 13.3945 37.8066 13.043H38.8965C38.9121 13.3398 38.998 13.5762 39.1543 13.752C39.3105 13.9238 39.502 14.0469 39.7285 14.1211C39.9551 14.1914 40.1797 14.2266 40.4023 14.2266C40.6992 14.2266 40.9473 14.1875 41.1465 14.1094C41.3496 14.0312 41.5039 13.9238 41.6094 13.7871C41.7148 13.6504 41.7676 13.4941 41.7676 13.3184ZM51.0742 7.22461L48.25 15H47.0957L50.3477 6.46875H51.0918L51.0742 7.22461ZM53.4414 15L50.6113 7.22461L50.5938 6.46875H51.3379L54.6016 15H53.4414ZM53.2949 11.8418V12.7676H48.502V11.8418H53.2949ZM58.3789 8.66016V9.49219H54.9512V8.66016H58.3789ZM56.1113 7.11914H57.1953V13.4297C57.1953 13.6445 57.2285 13.8066 57.2949 13.916C57.3613 14.0254 57.4473 14.0977 57.5527 14.1328C57.6582 14.168 57.7715 14.1855 57.8926 14.1855C57.9824 14.1855 58.0762 14.1777 58.1738 14.1621C58.2754 14.1426 58.3516 14.127 58.4023 14.1152L58.4082 15C58.3223 15.0273 58.209 15.0527 58.0684 15.0762C57.9316 15.1035 57.7656 15.1172 57.5703 15.1172C57.3047 15.1172 57.0605 15.0645 56.8379 14.959C56.6152 14.8535 56.4375 14.6777 56.3047 14.4316C56.1758 14.1816 56.1113 13.8457 56.1113 13.4238V7.11914ZM62.5547 8.66016V9.49219H59.127V8.66016H62.5547ZM60.2871 7.11914H61.3711V13.4297C61.3711 13.6445 61.4043 13.8066 61.4707 13.916C61.5371 14.0254 61.623 14.0977 61.7285 14.1328C61.834 14.168 61.9473 14.1855 62.0684 14.1855C62.1582 14.1855 62.252 14.1777 62.3496 14.1621C62.4512 14.1426 62.5273 14.127 62.5781 14.1152L62.584 15C62.498 15.0273 62.3848 15.0527 62.2441 15.0762C62.1074 15.1035 61.9414 15.1172 61.7461 15.1172C61.4805 15.1172 61.2363 15.0645 61.0137 14.959C60.791 14.8535 60.6133 14.6777 60.4805 14.4316C60.3516 14.1816 60.2871 13.8457 60.2871 13.4238V7.11914ZM66.707 15.1172C66.2656 15.1172 65.8652 15.043 65.5059 14.8945C65.1504 14.7422 64.8438 14.5293 64.5859 14.2559C64.332 13.9824 64.1367 13.6582 64 13.2832C63.8633 12.9082 63.7949 12.498 63.7949 12.0527V11.8066C63.7949 11.291 63.8711 10.832 64.0234 10.4297C64.1758 10.0234 64.3828 9.67969 64.6445 9.39844C64.9062 9.11719 65.2031 8.9043 65.5352 8.75977C65.8672 8.61523 66.2109 8.54297 66.5664 8.54297C67.0195 8.54297 67.4102 8.62109 67.7383 8.77734C68.0703 8.93359 68.3418 9.15234 68.5527 9.43359C68.7637 9.71094 68.9199 10.0391 69.0215 10.418C69.123 10.793 69.1738 11.2031 69.1738 11.6484V12.1348H64.4395V11.25H68.0898V11.168C68.0742 10.8867 68.0156 10.6133 67.9141 10.3477C67.8164 10.082 67.6602 9.86328 67.4453 9.69141C67.2305 9.51953 66.9375 9.43359 66.5664 9.43359C66.3203 9.43359 66.0938 9.48633 65.8867 9.5918C65.6797 9.69336 65.502 9.8457 65.3535 10.0488C65.2051 10.252 65.0898 10.5 65.0078 10.793C64.9258 11.0859 64.8848 11.4238 64.8848 11.8066V12.0527C64.8848 12.3535 64.9258 12.6367 65.0078 12.9023C65.0938 13.1641 65.2168 13.3945 65.377 13.5938C65.541 13.793 65.7383 13.9492 65.9688 14.0625C66.2031 14.1758 66.4688 14.2324 66.7656 14.2324C67.1484 14.2324 67.4727 14.1543 67.7383 13.998C68.0039 13.8418 68.2363 13.6328 68.4355 13.3711L69.0918 13.8926C68.9551 14.0996 68.7812 14.2969 68.5703 14.4844C68.3594 14.6719 68.0996 14.8242 67.791 14.9414C67.4863 15.0586 67.125 15.1172 66.707 15.1172ZM71.7734 10.0137V15H70.6895V8.66016H71.7148L71.7734 10.0137ZM71.5156 11.5898L71.0645 11.5723C71.0684 11.1387 71.1328 10.7383 71.2578 10.3711C71.3828 10 71.5586 9.67773 71.7852 9.4043C72.0117 9.13086 72.2812 8.91992 72.5938 8.77148C72.9102 8.61914 73.2598 8.54297 73.6426 8.54297C73.9551 8.54297 74.2363 8.58594 74.4863 8.67188C74.7363 8.75391 74.9492 8.88672 75.125 9.07031C75.3047 9.25391 75.4414 9.49219 75.5352 9.78516C75.6289 10.0742 75.6758 10.4277 75.6758 10.8457V15H74.5859V10.834C74.5859 10.502 74.5371 10.2363 74.4395 10.0371C74.3418 9.83398 74.1992 9.6875 74.0117 9.59766C73.8242 9.50391 73.5938 9.45703 73.3203 9.45703C73.0508 9.45703 72.8047 9.51367 72.582 9.62695C72.3633 9.74023 72.1738 9.89648 72.0137 10.0957C71.8574 10.2949 71.7344 10.5234 71.6445 10.7812C71.5586 11.0352 71.5156 11.3047 71.5156 11.5898ZM80.2266 8.66016V9.49219H76.7988V8.66016H80.2266ZM77.959 7.11914H79.043V13.4297C79.043 13.6445 79.0762 13.8066 79.1426 13.916C79.209 14.0254 79.2949 14.0977 79.4004 14.1328C79.5059 14.168 79.6191 14.1855 79.7402 14.1855C79.8301 14.1855 79.9238 14.1777 80.0215 14.1621C80.123 14.1426 80.1992 14.127 80.25 14.1152L80.2559 15C80.1699 15.0273 80.0566 15.0527 79.916 15.0762C79.7793 15.1035 79.6133 15.1172 79.418 15.1172C79.1523 15.1172 78.9082 15.0645 78.6855 14.959C78.4629 14.8535 78.2852 14.6777 78.1523 14.4316C78.0234 14.1816 77.959 13.8457 77.959 13.4238V7.11914ZM82.9258 8.66016V15H81.8359V8.66016H82.9258ZM81.7539 6.97852C81.7539 6.80273 81.8066 6.6543 81.9121 6.5332C82.0215 6.41211 82.1816 6.35156 82.3926 6.35156C82.5996 6.35156 82.7578 6.41211 82.8672 6.5332C82.9805 6.6543 83.0371 6.80273 83.0371 6.97852C83.0371 7.14648 82.9805 7.29102 82.8672 7.41211C82.7578 7.5293 82.5996 7.58789 82.3926 7.58789C82.1816 7.58789 82.0215 7.5293 81.9121 7.41211C81.8066 7.29102 81.7539 7.14648 81.7539 6.97852ZM84.6289 11.9004V11.7656C84.6289 11.3086 84.6953 10.8848 84.8281 10.4941C84.9609 10.0996 85.1523 9.75781 85.4023 9.46875C85.6523 9.17578 85.9551 8.94922 86.3105 8.78906C86.666 8.625 87.0645 8.54297 87.5059 8.54297C87.9512 8.54297 88.3516 8.625 88.707 8.78906C89.0664 8.94922 89.3711 9.17578 89.6211 9.46875C89.875 9.75781 90.0684 10.0996 90.2012 10.4941C90.334 10.8848 90.4004 11.3086 90.4004 11.7656V11.9004C90.4004 12.3574 90.334 12.7812 90.2012 13.1719C90.0684 13.5625 89.875 13.9043 89.6211 14.1973C89.3711 14.4863 89.0684 14.7129 88.7129 14.877C88.3613 15.0371 87.9629 15.1172 87.5176 15.1172C87.0723 15.1172 86.6719 15.0371 86.3164 14.877C85.9609 14.7129 85.6562 14.4863 85.4023 14.1973C85.1523 13.9043 84.9609 13.5625 84.8281 13.1719C84.6953 12.7812 84.6289 12.3574 84.6289 11.9004ZM85.7129 11.7656V11.9004C85.7129 12.2168 85.75 12.5156 85.8242 12.7969C85.8984 13.0742 86.0098 13.3203 86.1582 13.5352C86.3105 13.75 86.5 13.9199 86.7266 14.0449C86.9531 14.166 87.2168 14.2266 87.5176 14.2266C87.8145 14.2266 88.0742 14.166 88.2969 14.0449C88.5234 13.9199 88.7109 13.75 88.8594 13.5352C89.0078 13.3203 89.1191 13.0742 89.1934 12.7969C89.2715 12.5156 89.3105 12.2168 89.3105 11.9004V11.7656C89.3105 11.4531 89.2715 11.1582 89.1934 10.8809C89.1191 10.5996 89.0059 10.3516 88.8535 10.1367C88.7051 9.91797 88.5176 9.74609 88.291 9.62109C88.0684 9.49609 87.8066 9.43359 87.5059 9.43359C87.209 9.43359 86.9473 9.49609 86.7207 9.62109C86.498 9.74609 86.3105 9.91797 86.1582 10.1367C86.0098 10.3516 85.8984 10.5996 85.8242 10.8809C85.75 11.1582 85.7129 11.4531 85.7129 11.7656ZM93.0938 10.0137V15H92.0098V8.66016H93.0352L93.0938 10.0137ZM92.8359 11.5898L92.3848 11.5723C92.3887 11.1387 92.4531 10.7383 92.5781 10.3711C92.7031 10 92.8789 9.67773 93.1055 9.4043C93.332 9.13086 93.6016 8.91992 93.9141 8.77148C94.2305 8.61914 94.5801 8.54297 94.9629 8.54297C95.2754 8.54297 95.5566 8.58594 95.8066 8.67188C96.0566 8.75391 96.2695 8.88672 96.4453 9.07031C96.625 9.25391 96.7617 9.49219 96.8555 9.78516C96.9492 10.0742 96.9961 10.4277 96.9961 10.8457V15H95.9062V10.834C95.9062 10.502 95.8574 10.2363 95.7598 10.0371C95.6621 9.83398 95.5195 9.6875 95.332 9.59766C95.1445 9.50391 94.9141 9.45703 94.6406 9.45703C94.3711 9.45703 94.125 9.51367 93.9023 9.62695C93.6836 9.74023 93.4941 9.89648 93.334 10.0957C93.1777 10.2949 93.0547 10.5234 92.9648 10.7812C92.8789 11.0352 92.8359 11.3047 92.8359 11.5898Z" fill="#D92D20"/>
<defs>
<clipPath id="paint1_angular_6875_9955_clip_path"><path d="M8 0V1H98V0V-1H8V0ZM106 8H105V14H106H107V8H106ZM98 22V21H8V22V23H98V22ZM0 14H1V8H0H-1V14H0ZM8 22V21C4.13401 21 1 17.866 1 14H0H-1C-1 18.9706 3.02944 23 8 23V22ZM106 14H105C105 17.866 101.866 21 98 21V22V23C102.971 23 107 18.9706 107 14H106ZM98 0V1C101.866 1 105 4.13401 105 8H106H107C107 3.02944 102.971 -1 98 -1V0ZM8 0V-1C3.02944 -1 -1 3.02944 -1 8H0H1C1 4.13401 4.13401 1 8 1V0Z"/></clipPath><linearGradient id="paint0_linear_6875_9955" x1="5.50649" y1="-3" x2="83.2719" y2="46.8494" gradientUnits="userSpaceOnUse">
<stop stop-color="#FEE4E2"/>
<stop offset="0.1875" stop-color="#FEF3F2"/>
<stop offset="0.841346" stop-color="#FEF3F2"/>
<stop offset="1" stop-color="#FEE4E2"/>
</linearGradient>
</defs>
</svg>
