<svg xmlns="http://www.w3.org/2000/svg" width="22" height="22" fill="none" viewBox="0 0 22 22">
  <path fill="#344054" d="M9.409 3.444c-.015-.015-.473-.13-1.018-.255s-.997-.208-1.004-.185-.064.401-.125.84c-.124.882-.424 1.911-.744 2.555-1 2.006-2.791 3.334-4.964 3.68L1 10.165v1.773l.502.084c3.286.551 5.429 3.008 5.83 6.686.026.24.057.436.069.436.11 0 1.947-.443 1.982-.478.025-.025.006-.25-.042-.5-.531-2.765-2.053-5.015-4.027-5.955l-.474-.226 9.74-.018 6.16-.01v-1.794l-6.176-.011-9.717-.018.598-.303c1.552-.786 2.78-2.328 3.503-4.397.206-.59.517-1.934.46-1.99"/>
</svg>
