<svg width="165" height="26" viewBox="0 0 165 26" fill="none" xmlns="http://www.w3.org/2000/svg">
<path d="M2.13303 2.67506C4.49312 1.34898 8.36105 1.38582 10 1.56999V8.47656H0.166286C-0.161504 7.09526 -0.227062 4.00114 2.13303 2.67506Z" fill="#3538CD"/>
<path d="M7 0.5H15V25.4528C10.6 25.852 9.5 23.6229 9.5 22.4584V7.98583C9.5 6.48866 8.9 3.29471 6.5 2.49622C4.1 1.69773 1.83333 3.16163 1 3.99339C2.2 1.59792 5.5 0.666352 7 0.5Z" fill="#6172F3"/>
<rect width="134" height="25" transform="translate(15 0.5)" fill="#6172F3"/>
<path d="M33.9395 7.54688V17.5H31.8887V7.54688H33.9395ZM39.9004 7.54688L35.9561 12.4619L33.6797 14.9092L33.3105 12.9678L34.8486 10.8623L37.3848 7.54688H39.9004ZM37.5693 17.5L34.6367 12.8994L36.1543 11.6279L39.9961 17.5H37.5693ZM44.9082 15.832V12.5371C44.9082 12.3001 44.8695 12.0973 44.792 11.9287C44.7145 11.7555 44.5938 11.6211 44.4297 11.5254C44.2702 11.4297 44.0628 11.3818 43.8076 11.3818C43.5889 11.3818 43.3997 11.4206 43.2402 11.498C43.0807 11.571 42.9577 11.6781 42.8711 11.8193C42.7845 11.9561 42.7412 12.1178 42.7412 12.3047H40.7725C40.7725 11.9902 40.8454 11.6917 40.9912 11.4092C41.137 11.1266 41.349 10.8783 41.627 10.6641C41.9049 10.4453 42.2354 10.2744 42.6182 10.1514C43.0055 10.0283 43.4385 9.9668 43.917 9.9668C44.4912 9.9668 45.0016 10.0625 45.4482 10.2539C45.8949 10.4453 46.2458 10.7324 46.501 11.1152C46.7607 11.498 46.8906 11.9766 46.8906 12.5508V15.7158C46.8906 16.1214 46.9157 16.4541 46.9658 16.7139C47.016 16.9691 47.0889 17.1924 47.1846 17.3838V17.5H45.1953C45.0996 17.2995 45.0267 17.0488 44.9766 16.748C44.931 16.4427 44.9082 16.1374 44.9082 15.832ZM45.168 12.9951L45.1816 14.1094H44.0811C43.8213 14.1094 43.5957 14.139 43.4043 14.1982C43.2129 14.2575 43.0557 14.3418 42.9326 14.4512C42.8096 14.556 42.7184 14.679 42.6592 14.8203C42.6045 14.9616 42.5771 15.1165 42.5771 15.2852C42.5771 15.4538 42.6159 15.6064 42.6934 15.7432C42.7708 15.8753 42.8825 15.9801 43.0283 16.0576C43.1742 16.1305 43.3451 16.167 43.541 16.167C43.8372 16.167 44.0947 16.1077 44.3135 15.9893C44.5322 15.8708 44.7008 15.7249 44.8193 15.5518C44.9424 15.3786 45.0062 15.2145 45.0107 15.0596L45.5303 15.8936C45.4574 16.0804 45.3571 16.2741 45.2295 16.4746C45.1064 16.6751 44.9492 16.8643 44.7578 17.042C44.5664 17.2152 44.3363 17.3587 44.0674 17.4727C43.7985 17.582 43.4795 17.6367 43.1104 17.6367C42.641 17.6367 42.2148 17.5433 41.832 17.3564C41.4538 17.165 41.153 16.903 40.9297 16.5703C40.7109 16.2331 40.6016 15.8503 40.6016 15.4219C40.6016 15.0345 40.6745 14.6904 40.8203 14.3896C40.9661 14.0889 41.1803 13.8359 41.4629 13.6309C41.75 13.4212 42.1077 13.264 42.5361 13.1592C42.9645 13.0498 43.4613 12.9951 44.0264 12.9951H45.168ZM50.7363 10.1035V17.5H48.7607V10.1035H50.7363ZM48.6377 8.17578C48.6377 7.88867 48.738 7.65169 48.9385 7.46484C49.139 7.27799 49.4079 7.18457 49.7451 7.18457C50.0778 7.18457 50.3444 7.27799 50.5449 7.46484C50.75 7.65169 50.8525 7.88867 50.8525 8.17578C50.8525 8.46289 50.75 8.69987 50.5449 8.88672C50.3444 9.07357 50.0778 9.16699 49.7451 9.16699C49.4079 9.16699 49.139 9.07357 48.9385 8.88672C48.738 8.69987 48.6377 8.46289 48.6377 8.17578ZM54.582 11.7168V17.5H52.6133V10.1035H54.4658L54.582 11.7168ZM56.8105 10.0557L56.7764 11.8809C56.6807 11.8672 56.5645 11.8558 56.4277 11.8467C56.2956 11.833 56.1748 11.8262 56.0654 11.8262C55.7874 11.8262 55.5459 11.8626 55.3408 11.9355C55.1403 12.0039 54.9717 12.1064 54.835 12.2432C54.7028 12.3799 54.6025 12.5462 54.5342 12.7422C54.4704 12.9382 54.4339 13.1615 54.4248 13.4121L54.0283 13.2891C54.0283 12.8105 54.0762 12.3708 54.1719 11.9697C54.2676 11.5641 54.4066 11.2109 54.5889 10.9102C54.7757 10.6094 55.0036 10.377 55.2725 10.2129C55.5413 10.0488 55.849 9.9668 56.1953 9.9668C56.3047 9.9668 56.4163 9.97591 56.5303 9.99414C56.6442 10.0078 56.7376 10.0283 56.8105 10.0557ZM61.75 15.832V12.5371C61.75 12.3001 61.7113 12.0973 61.6338 11.9287C61.5563 11.7555 61.4355 11.6211 61.2715 11.5254C61.112 11.4297 60.9046 11.3818 60.6494 11.3818C60.4307 11.3818 60.2415 11.4206 60.082 11.498C59.9225 11.571 59.7995 11.6781 59.7129 11.8193C59.6263 11.9561 59.583 12.1178 59.583 12.3047H57.6143C57.6143 11.9902 57.6872 11.6917 57.833 11.4092C57.9788 11.1266 58.1908 10.8783 58.4688 10.6641C58.7467 10.4453 59.0771 10.2744 59.46 10.1514C59.8473 10.0283 60.2803 9.9668 60.7588 9.9668C61.333 9.9668 61.8434 10.0625 62.29 10.2539C62.7367 10.4453 63.0876 10.7324 63.3428 11.1152C63.6025 11.498 63.7324 11.9766 63.7324 12.5508V15.7158C63.7324 16.1214 63.7575 16.4541 63.8076 16.7139C63.8577 16.9691 63.9307 17.1924 64.0264 17.3838V17.5H62.0371C61.9414 17.2995 61.8685 17.0488 61.8184 16.748C61.7728 16.4427 61.75 16.1374 61.75 15.832ZM62.0098 12.9951L62.0234 14.1094H60.9229C60.6631 14.1094 60.4375 14.139 60.2461 14.1982C60.0547 14.2575 59.8975 14.3418 59.7744 14.4512C59.6514 14.556 59.5602 14.679 59.501 14.8203C59.4463 14.9616 59.4189 15.1165 59.4189 15.2852C59.4189 15.4538 59.4577 15.6064 59.5352 15.7432C59.6126 15.8753 59.7243 15.9801 59.8701 16.0576C60.016 16.1305 60.1868 16.167 60.3828 16.167C60.679 16.167 60.9365 16.1077 61.1553 15.9893C61.374 15.8708 61.5426 15.7249 61.6611 15.5518C61.7842 15.3786 61.848 15.2145 61.8525 15.0596L62.3721 15.8936C62.2992 16.0804 62.1989 16.2741 62.0713 16.4746C61.9482 16.6751 61.791 16.8643 61.5996 17.042C61.4082 17.2152 61.1781 17.3587 60.9092 17.4727C60.6403 17.582 60.3213 17.6367 59.9521 17.6367C59.4827 17.6367 59.0566 17.5433 58.6738 17.3564C58.2956 17.165 57.9948 16.903 57.7715 16.5703C57.5527 16.2331 57.4434 15.8503 57.4434 15.4219C57.4434 15.0345 57.5163 14.6904 57.6621 14.3896C57.8079 14.0889 58.0221 13.8359 58.3047 13.6309C58.5918 13.4212 58.9495 13.264 59.3779 13.1592C59.8063 13.0498 60.3031 12.9951 60.8682 12.9951H62.0098ZM67.0791 7V8.03906C67.0791 8.33529 67.0221 8.64062 66.9082 8.95508C66.7988 9.26953 66.6507 9.56803 66.4639 9.85059C66.277 10.1286 66.0719 10.3656 65.8486 10.5615L64.9258 10.0283C65.0944 9.75944 65.238 9.46777 65.3564 9.15332C65.4749 8.83431 65.5342 8.46517 65.5342 8.0459V7H67.0791ZM71.417 15.4561C71.417 15.3148 71.376 15.1872 71.2939 15.0732C71.2119 14.9593 71.0592 14.8545 70.8359 14.7588C70.6172 14.6585 70.3005 14.5674 69.8857 14.4854C69.512 14.4033 69.1634 14.3008 68.8398 14.1777C68.5208 14.0501 68.2428 13.8975 68.0059 13.7197C67.7734 13.542 67.5911 13.3324 67.459 13.0908C67.3268 12.8447 67.2607 12.5645 67.2607 12.25C67.2607 11.9401 67.3268 11.6484 67.459 11.375C67.5957 11.1016 67.7894 10.86 68.04 10.6504C68.2952 10.4362 68.6051 10.2699 68.9697 10.1514C69.3389 10.0283 69.7536 9.9668 70.2139 9.9668C70.8564 9.9668 71.4079 10.0693 71.8682 10.2744C72.333 10.4795 72.6885 10.762 72.9346 11.1221C73.1852 11.4775 73.3105 11.8831 73.3105 12.3389H71.3418C71.3418 12.1475 71.3008 11.9766 71.2188 11.8262C71.1413 11.6712 71.0182 11.5505 70.8496 11.4639C70.6855 11.3727 70.4714 11.3271 70.207 11.3271C69.9883 11.3271 69.7992 11.3659 69.6396 11.4434C69.4801 11.5163 69.3571 11.6165 69.2705 11.7441C69.1885 11.8672 69.1475 12.0039 69.1475 12.1543C69.1475 12.2682 69.1702 12.3708 69.2158 12.4619C69.266 12.5485 69.3457 12.6283 69.4551 12.7012C69.5645 12.7741 69.7057 12.8424 69.8789 12.9062C70.0566 12.9655 70.2754 13.0202 70.5352 13.0703C71.0684 13.1797 71.5446 13.3232 71.9639 13.501C72.3831 13.6742 72.7158 13.9111 72.9619 14.2119C73.208 14.5081 73.3311 14.8978 73.3311 15.3809C73.3311 15.709 73.2581 16.0098 73.1123 16.2832C72.9665 16.5566 72.7568 16.7959 72.4834 17.001C72.21 17.2015 71.8818 17.3587 71.499 17.4727C71.1208 17.582 70.6947 17.6367 70.2207 17.6367C69.5326 17.6367 68.9492 17.5137 68.4707 17.2676C67.9967 17.0215 67.6367 16.7093 67.3906 16.3311C67.1491 15.9482 67.0283 15.5563 67.0283 15.1553H68.8945C68.9036 15.4242 68.972 15.6406 69.0996 15.8047C69.2318 15.9688 69.3981 16.0872 69.5986 16.1602C69.8037 16.2331 70.0247 16.2695 70.2617 16.2695C70.5169 16.2695 70.7288 16.2354 70.8975 16.167C71.0661 16.0941 71.1937 15.9984 71.2803 15.8799C71.3714 15.7568 71.417 15.6156 71.417 15.4561ZM82.7656 9.24902L80.0586 17.5H77.8779L81.5762 7.54688H82.9639L82.7656 9.24902ZM85.0146 17.5L82.3008 9.24902L82.082 7.54688H83.4834L87.2021 17.5H85.0146ZM84.8916 13.7949V15.4014H79.6348V13.7949H84.8916ZM89.9609 11.6826V17.5H87.9922V10.1035H89.8379L89.9609 11.6826ZM89.6738 13.542H89.1406C89.1406 12.9951 89.2113 12.5029 89.3525 12.0654C89.4938 11.6234 89.6921 11.2474 89.9473 10.9375C90.2025 10.623 90.5055 10.3838 90.8564 10.2197C91.2119 10.0511 91.6084 9.9668 92.0459 9.9668C92.3923 9.9668 92.709 10.0169 92.9961 10.1172C93.2832 10.2174 93.5293 10.377 93.7344 10.5957C93.944 10.8145 94.1035 11.1038 94.2129 11.4639C94.3268 11.8239 94.3838 12.2637 94.3838 12.7832V17.5H92.4014V12.7764C92.4014 12.4482 92.3558 12.193 92.2646 12.0107C92.1735 11.8285 92.0391 11.7008 91.8613 11.6279C91.6882 11.5505 91.474 11.5117 91.2188 11.5117C90.9544 11.5117 90.7243 11.5641 90.5283 11.6689C90.3369 11.7738 90.1774 11.9196 90.0498 12.1064C89.9268 12.2887 89.8333 12.5029 89.7695 12.749C89.7057 12.9951 89.6738 13.2594 89.6738 13.542ZM100.123 15.832V12.5371C100.123 12.3001 100.084 12.0973 100.007 11.9287C99.9294 11.7555 99.8086 11.6211 99.6445 11.5254C99.485 11.4297 99.2777 11.3818 99.0225 11.3818C98.8037 11.3818 98.6146 11.4206 98.4551 11.498C98.2956 11.571 98.1725 11.6781 98.0859 11.8193C97.9993 11.9561 97.9561 12.1178 97.9561 12.3047H95.9873C95.9873 11.9902 96.0602 11.6917 96.2061 11.4092C96.3519 11.1266 96.5638 10.8783 96.8418 10.6641C97.1198 10.4453 97.4502 10.2744 97.833 10.1514C98.2204 10.0283 98.6533 9.9668 99.1318 9.9668C99.7061 9.9668 100.216 10.0625 100.663 10.2539C101.11 10.4453 101.461 10.7324 101.716 11.1152C101.976 11.498 102.105 11.9766 102.105 12.5508V15.7158C102.105 16.1214 102.131 16.4541 102.181 16.7139C102.231 16.9691 102.304 17.1924 102.399 17.3838V17.5H100.41C100.314 17.2995 100.242 17.0488 100.191 16.748C100.146 16.4427 100.123 16.1374 100.123 15.832ZM100.383 12.9951L100.396 14.1094H99.2959C99.0361 14.1094 98.8105 14.139 98.6191 14.1982C98.4277 14.2575 98.2705 14.3418 98.1475 14.4512C98.0244 14.556 97.9333 14.679 97.874 14.8203C97.8193 14.9616 97.792 15.1165 97.792 15.2852C97.792 15.4538 97.8307 15.6064 97.9082 15.7432C97.9857 15.8753 98.0973 15.9801 98.2432 16.0576C98.389 16.1305 98.5599 16.167 98.7559 16.167C99.0521 16.167 99.3096 16.1077 99.5283 15.9893C99.7471 15.8708 99.9157 15.7249 100.034 15.5518C100.157 15.3786 100.221 15.2145 100.226 15.0596L100.745 15.8936C100.672 16.0804 100.572 16.2741 100.444 16.4746C100.321 16.6751 100.164 16.8643 99.9727 17.042C99.7812 17.2152 99.5511 17.3587 99.2822 17.4727C99.0133 17.582 98.6943 17.6367 98.3252 17.6367C97.8558 17.6367 97.4297 17.5433 97.0469 17.3564C96.6686 17.165 96.3678 16.903 96.1445 16.5703C95.9258 16.2331 95.8164 15.8503 95.8164 15.4219C95.8164 15.0345 95.8893 14.6904 96.0352 14.3896C96.181 14.0889 96.3952 13.8359 96.6777 13.6309C96.9648 13.4212 97.3226 13.264 97.751 13.1592C98.1794 13.0498 98.6761 12.9951 99.2412 12.9951H100.383ZM105.951 7V17.5H103.976V7H105.951ZM110.022 16.666L111.984 10.1035H114.097L111.123 18.6143C111.059 18.8011 110.973 19.0016 110.863 19.2158C110.758 19.43 110.615 19.6328 110.433 19.8242C110.255 20.0202 110.029 20.1797 109.756 20.3027C109.487 20.4258 109.157 20.4873 108.765 20.4873C108.578 20.4873 108.425 20.4759 108.307 20.4531C108.188 20.4303 108.047 20.3984 107.883 20.3574V18.915C107.933 18.915 107.985 18.915 108.04 18.915C108.095 18.9196 108.147 18.9219 108.197 18.9219C108.457 18.9219 108.669 18.8923 108.833 18.833C108.997 18.7738 109.129 18.6826 109.229 18.5596C109.33 18.4411 109.41 18.2861 109.469 18.0947L110.022 16.666ZM109.202 10.1035L110.809 15.4629L111.089 17.5479L109.749 17.6914L107.09 10.1035H109.202ZM119.132 15.4561C119.132 15.3148 119.091 15.1872 119.009 15.0732C118.927 14.9593 118.774 14.8545 118.551 14.7588C118.332 14.6585 118.015 14.5674 117.601 14.4854C117.227 14.4033 116.878 14.3008 116.555 14.1777C116.236 14.0501 115.958 13.8975 115.721 13.7197C115.488 13.542 115.306 13.3324 115.174 13.0908C115.042 12.8447 114.976 12.5645 114.976 12.25C114.976 11.9401 115.042 11.6484 115.174 11.375C115.311 11.1016 115.504 10.86 115.755 10.6504C116.01 10.4362 116.32 10.2699 116.685 10.1514C117.054 10.0283 117.468 9.9668 117.929 9.9668C118.571 9.9668 119.123 10.0693 119.583 10.2744C120.048 10.4795 120.403 10.762 120.649 11.1221C120.9 11.4775 121.025 11.8831 121.025 12.3389H119.057C119.057 12.1475 119.016 11.9766 118.934 11.8262C118.856 11.6712 118.733 11.5505 118.564 11.4639C118.4 11.3727 118.186 11.3271 117.922 11.3271C117.703 11.3271 117.514 11.3659 117.354 11.4434C117.195 11.5163 117.072 11.6165 116.985 11.7441C116.903 11.8672 116.862 12.0039 116.862 12.1543C116.862 12.2682 116.885 12.3708 116.931 12.4619C116.981 12.5485 117.061 12.6283 117.17 12.7012C117.279 12.7741 117.421 12.8424 117.594 12.9062C117.771 12.9655 117.99 13.0202 118.25 13.0703C118.783 13.1797 119.259 13.3232 119.679 13.501C120.098 13.6742 120.431 13.9111 120.677 14.2119C120.923 14.5081 121.046 14.8978 121.046 15.3809C121.046 15.709 120.973 16.0098 120.827 16.2832C120.681 16.5566 120.472 16.7959 120.198 17.001C119.925 17.2015 119.597 17.3587 119.214 17.4727C118.836 17.582 118.41 17.6367 117.936 17.6367C117.247 17.6367 116.664 17.5137 116.186 17.2676C115.712 17.0215 115.352 16.7093 115.105 16.3311C114.864 15.9482 114.743 15.5563 114.743 15.1553H116.609C116.618 15.4242 116.687 15.6406 116.814 15.8047C116.947 15.9688 117.113 16.0872 117.313 16.1602C117.519 16.2331 117.74 16.2695 117.977 16.2695C118.232 16.2695 118.444 16.2354 118.612 16.167C118.781 16.0941 118.909 15.9984 118.995 15.8799C119.086 15.7568 119.132 15.6156 119.132 15.4561ZM124.652 10.1035V17.5H122.677V10.1035H124.652ZM122.554 8.17578C122.554 7.88867 122.654 7.65169 122.854 7.46484C123.055 7.27799 123.324 7.18457 123.661 7.18457C123.994 7.18457 124.26 7.27799 124.461 7.46484C124.666 7.65169 124.769 7.88867 124.769 8.17578C124.769 8.46289 124.666 8.69987 124.461 8.88672C124.26 9.07357 123.994 9.16699 123.661 9.16699C123.324 9.16699 123.055 9.07357 122.854 8.88672C122.654 8.69987 122.554 8.46289 122.554 8.17578ZM130.528 15.4561C130.528 15.3148 130.487 15.1872 130.405 15.0732C130.323 14.9593 130.171 14.8545 129.947 14.7588C129.729 14.6585 129.412 14.5674 128.997 14.4854C128.623 14.4033 128.275 14.3008 127.951 14.1777C127.632 14.0501 127.354 13.8975 127.117 13.7197C126.885 13.542 126.702 13.3324 126.57 13.0908C126.438 12.8447 126.372 12.5645 126.372 12.25C126.372 11.9401 126.438 11.6484 126.57 11.375C126.707 11.1016 126.901 10.86 127.151 10.6504C127.407 10.4362 127.716 10.2699 128.081 10.1514C128.45 10.0283 128.865 9.9668 129.325 9.9668C129.968 9.9668 130.519 10.0693 130.979 10.2744C131.444 10.4795 131.8 10.762 132.046 11.1221C132.297 11.4775 132.422 11.8831 132.422 12.3389H130.453C130.453 12.1475 130.412 11.9766 130.33 11.8262C130.253 11.6712 130.13 11.5505 129.961 11.4639C129.797 11.3727 129.583 11.3271 129.318 11.3271C129.1 11.3271 128.91 11.3659 128.751 11.4434C128.591 11.5163 128.468 11.6165 128.382 11.7441C128.3 11.8672 128.259 12.0039 128.259 12.1543C128.259 12.2682 128.282 12.3708 128.327 12.4619C128.377 12.5485 128.457 12.6283 128.566 12.7012C128.676 12.7741 128.817 12.8424 128.99 12.9062C129.168 12.9655 129.387 13.0202 129.646 13.0703C130.18 13.1797 130.656 13.3232 131.075 13.501C131.494 13.6742 131.827 13.9111 132.073 14.2119C132.319 14.5081 132.442 14.8978 132.442 15.3809C132.442 15.709 132.369 16.0098 132.224 16.2832C132.078 16.5566 131.868 16.7959 131.595 17.001C131.321 17.2015 130.993 17.3587 130.61 17.4727C130.232 17.582 129.806 17.6367 129.332 17.6367C128.644 17.6367 128.061 17.5137 127.582 17.2676C127.108 17.0215 126.748 16.7093 126.502 16.3311C126.26 15.9482 126.14 15.5563 126.14 15.1553H128.006C128.015 15.4242 128.083 15.6406 128.211 15.8047C128.343 15.9688 128.509 16.0872 128.71 16.1602C128.915 16.2331 129.136 16.2695 129.373 16.2695C129.628 16.2695 129.84 16.2354 130.009 16.167C130.177 16.0941 130.305 15.9984 130.392 15.8799C130.483 15.7568 130.528 15.6156 130.528 15.4561Z" fill="white"/>
<path d="M161.867 2.67506C159.507 1.34898 155.639 1.38582 154 1.56999V8.47656H163.834C164.162 7.09526 164.227 4.00114 161.867 2.67506Z" fill="#3538CD"/>
<path d="M157 0.476562H149V25.4766C153.4 25.8766 154.5 23.6432 154.5 22.4766V7.97656C154.5 6.47656 155.1 3.27656 157.5 2.47656C159.9 1.67656 162.167 3.14323 163 3.97656C161.8 1.57656 158.5 0.643229 157 0.476562Z" fill="#6172F3"/>
</svg>
