<svg width="92" height="142" viewBox="0 0 92 142" fill="none" xmlns="http://www.w3.org/2000/svg">
<mask id="mask0_5399_4628" style="mask-type:luminance" maskUnits="userSpaceOnUse" x="-27" y="-13" width="133" height="158">
<path d="M105.141 36.4501L39.133 -12.2671L-26.6067 95.544L39.4017 144.261L105.141 36.4501Z" fill="white"/>
</mask>
<g mask="url(#mask0_5399_4628)">
<mask id="mask1_5399_4628" style="mask-type:luminance" maskUnits="userSpaceOnUse" x="-27" y="-13" width="127" height="154">
<path d="M99.9101 32.6043L39.1084 -12.2744L-26.6074 95.5157L34.1943 140.394L99.9101 32.6043Z" fill="white"/>
</mask>
<g mask="url(#mask1_5399_4628)">
<path d="M55.7378 4.35792e-05C53.3787 2.42589 50.8101 4.60188 48.0313 6.47688C45.2413 8.33681 42.2969 9.9597 39.2902 11.4979C36.2819 13.037 33.2303 14.5302 30.2362 16.1769C27.2594 17.8424 24.348 19.6712 21.6642 21.8196C16.2883 26.1075 11.885 31.6349 8.70776 37.8868C5.48284 44.1174 3.21941 50.8901 1.63256 57.932C0.895127 61.4755 0.36324 65.0973 0.123956 68.7943C-0.0956387 72.4939 -0.0240101 76.2587 0.343009 80.0383C0.712331 83.8175 1.38187 87.6141 2.3746 91.3675C3.36618 95.1212 4.68439 98.8243 6.2475 102.436C9.36735 109.673 13.5745 116.482 18.3508 122.797C23.1315 129.121 28.4987 134.967 34.1943 140.394C28.7181 134.729 23.5334 128.755 18.9636 122.362C14.3974 115.974 10.4816 109.148 7.55456 102.028C4.62433 94.9114 2.81219 87.4867 2.22136 80.1553C1.92495 76.4904 1.91558 72.8469 2.18832 69.2678C2.49008 65.6953 3.03596 62.185 3.78946 58.7496C4.56212 55.3194 5.59387 51.9931 6.74739 48.729C7.98705 45.5086 9.34211 42.3556 10.9259 39.3614C12.5105 36.3679 14.3345 33.5471 16.3849 30.9311C18.4394 28.3171 20.7784 25.9696 23.3108 23.8443C28.3674 19.5617 34.3738 16.4582 40.23 13.0287C46.0884 9.62349 51.6748 5.49302 55.7378 4.35792e-05Z" fill="#E0EAFF"/>
</g>
<mask id="mask2_5399_4628" style="mask-type:luminance" maskUnits="userSpaceOnUse" x="-23" y="-9" width="123" height="150">
<path d="M99.2695 33.9802L42.2806 -8.08818L-22.6459 98.4239L34.343 140.492L99.2695 33.9802Z" fill="white"/>
</mask>
<g mask="url(#mask2_5399_4628)">
<path d="M57.9882 3.50689C55.7035 5.86894 53.3301 8.1199 50.6374 9.96955C48.0153 11.906 45.1266 13.4662 42.2492 15.0307C36.4801 18.1324 30.4347 21.0014 25.2979 25.267C20.0954 29.4274 15.8719 34.7816 12.601 40.7131C10.8792 43.6354 9.63151 46.8413 8.28311 49.9837C7.05594 53.1908 6.00135 56.4936 5.1217 59.876C4.30428 63.2854 3.67677 66.7726 3.29231 70.3341C2.92784 73.8994 2.82359 77.5388 3.01785 81.2122C3.41118 88.5545 4.98727 96.0372 7.79809 103.17C10.5563 110.318 14.4355 117.096 18.978 123.333C23.5696 129.541 28.7382 135.295 34.343 140.492C29.1052 134.902 24.1499 129.032 19.9445 122.69C15.6969 116.39 12.1459 109.667 9.62863 102.7C8.37955 99.2156 7.38367 95.6773 6.66598 92.1243C5.96054 88.5703 5.54732 85.003 5.41274 81.4709C5.2789 77.9393 5.37364 74.4307 5.75181 70.9895C6.14307 67.553 6.77402 64.1824 7.57978 60.8794C8.41622 57.5871 9.42255 54.3617 10.6032 51.2204C11.8912 48.1474 13.1167 45.0234 14.7294 42.1613C17.7869 36.3232 21.7925 31.1502 26.6679 26.9277C27.2512 26.3688 27.8963 25.8831 28.5407 25.395L30.4643 23.9186C31.8182 23.0241 33.1308 22.0734 34.5243 21.2221C37.2742 19.4742 40.1432 17.8677 42.9639 16.1711C48.5786 12.7571 53.9989 8.80495 57.9882 3.50689Z" fill="#E0EAFF"/>
</g>
<mask id="mask3_5399_4628" style="mask-type:luminance" maskUnits="userSpaceOnUse" x="-19" y="-5" width="118" height="146">
<path d="M98.6278 35.3577L45.3081 -4.00632L-18.8298 101.228L34.4899 140.592L98.6278 35.3577Z" fill="white"/>
</mask>
<g mask="url(#mask3_5399_4628)">
<path d="M60.2364 7.01513C58.0393 9.332 55.7624 11.5494 53.1669 13.3729C50.64 15.2778 47.8626 16.8381 45.0824 18.3835C42.2895 19.9185 39.4621 21.4192 36.6879 23.0404C35.3067 23.8598 33.9471 24.7239 32.6141 25.6245C31.3255 26.5886 29.9592 27.4567 28.757 28.5391C23.7378 32.6184 19.6317 37.797 16.3847 43.5068C13.1541 49.2386 10.6234 55.4226 8.80979 61.9398C8.35758 63.572 7.85216 65.1797 7.58678 66.8893C7.2772 68.5772 6.91475 70.2489 6.65271 71.953L6.12205 77.1489C5.99836 78.0064 6.03651 78.9021 6.01258 79.7826L5.98403 82.4354C6.08357 89.5262 7.23548 96.7981 9.6367 103.814C11.9914 110.839 15.5105 117.562 19.7757 123.73C24.0884 129.872 29.0477 135.538 34.4909 140.592C29.4168 135.148 24.6783 129.374 20.7647 123.12C16.8035 116.909 13.6191 110.268 11.5005 103.443C9.39921 96.6149 8.34061 89.628 8.38132 82.8063L8.44046 80.2534C8.46844 79.4046 8.43268 78.5434 8.55906 77.7147L9.10042 72.7002C9.36481 71.0533 9.72865 69.4352 10.0362 67.8014C10.2989 66.1502 10.8067 64.5909 11.2499 63.0066C12.9637 56.6497 15.4396 50.5819 18.4997 44.978C21.5371 39.3484 25.4387 34.3361 30.1383 30.1895C34.8123 25.9991 40.3743 22.8758 45.8088 19.5166C51.219 16.1345 56.4224 12.2101 60.2364 7.01513Z" fill="#E0EAFF"/>
</g>
<mask id="mask4_5399_4628" style="mask-type:luminance" maskUnits="userSpaceOnUse" x="-16" y="0" width="114" height="141">
<path d="M97.9878 36.7343L48.3125 0.0584107L-15.0362 104.014L34.639 140.69L97.9878 36.7343Z" fill="white"/>
</mask>
<g mask="url(#mask4_5399_4628)">
<path d="M62.4852 10.5216C60.3746 12.7966 58.1931 14.9837 55.6921 16.7841C53.2561 18.6592 50.5897 20.2215 47.9036 21.7495C45.2147 23.2754 42.4924 24.7826 39.8167 26.3846C37.1754 28.0398 34.5637 29.7793 32.186 31.8293C27.3452 35.8287 23.3485 40.8359 20.1247 46.3305C19.7194 47.0165 19.2978 47.6926 18.9064 48.389L17.8412 50.5456L16.7769 52.7039C16.6034 53.0655 16.4169 53.4205 16.2522 53.7866L15.7945 54.9078L13.9635 59.3926C13.637 60.129 13.3936 60.9108 13.1461 61.6886L12.3932 64.0203L11.6525 66.3581C11.4053 67.1371 11.2619 67.9641 11.0624 68.7645C10.707 70.3845 10.2765 71.9758 9.98608 73.62L9.25992 78.6043C9.10618 79.4256 9.11719 80.2942 9.04908 81.139L8.9047 83.692C8.69328 90.5264 9.43391 97.5839 11.4408 104.471C13.3988 111.362 16.5586 118.025 20.5513 124.124C24.5886 130.199 29.3519 135.78 34.6385 140.69C29.7204 135.39 25.1904 129.712 21.5622 123.549C17.8831 117.426 15.0654 110.878 13.3358 104.203C11.6223 97.5253 10.9583 90.7504 11.2989 84.1769L11.4696 81.7187C11.5411 80.9031 11.531 80.068 11.6876 79.2736L12.419 74.4587C12.71 72.8694 13.1403 71.3255 13.493 69.757C13.6928 68.9806 13.8339 68.1818 14.0799 67.4256L14.8133 65.1539C16.6428 59.0432 19.2091 53.2417 22.2262 47.8264C25.245 42.3977 29.0473 37.5403 33.5787 33.4692C35.8089 31.3905 38.3203 29.6325 40.834 27.8741C43.3927 26.1659 46.0275 24.5525 48.6433 22.8745C53.8528 19.5231 58.8429 15.619 62.4852 10.5216Z" fill="#E0EAFF"/>
</g>
<mask id="mask5_5399_4628" style="mask-type:luminance" maskUnits="userSpaceOnUse" x="-12" y="4" width="110" height="137">
<path d="M97.3475 38.1119L51.2711 4.08983L-11.2886 106.768L34.7879 140.79L97.3475 38.1119Z" fill="white"/>
</mask>
<g mask="url(#mask5_5399_4628)">
<path d="M64.7325 14.0301C62.7075 16.2665 60.6196 18.4247 58.2131 20.205C57.0673 21.1608 55.783 21.944 54.5616 22.8004C53.2819 23.5831 52.0279 24.3917 50.7151 25.131C48.1301 26.6546 45.5045 28.1542 42.935 29.7555C41.6714 30.5937 40.3743 31.3824 39.1711 32.3136L37.3361 33.6674L35.5869 35.1352C30.9152 39.0558 27.0234 43.8971 23.8214 49.1804C22.9567 50.4618 22.2676 51.8599 21.5428 53.2326C20.8158 54.6057 20.0769 55.972 19.4792 57.4208L17.5781 61.7051C16.9799 63.1546 16.4842 64.6628 15.933 66.1399C13.8994 72.1234 12.2967 78.3874 11.8132 84.9891C11.3039 91.5599 11.6438 98.386 13.2526 105.131C14.8128 111.874 17.5999 118.475 21.3176 124.507C25.0772 130.518 29.6491 136.018 34.7875 140.79C30.019 135.629 25.6911 130.043 22.3514 123.969C18.9566 117.937 16.516 111.486 15.1752 104.974C13.8507 98.4585 13.5702 91.9082 14.199 85.5881C14.4137 84.0211 14.5228 82.4267 14.7892 80.876L15.7034 76.2603C15.8278 75.482 16.0804 74.7497 16.28 73.9981L16.91 71.7546L17.5426 69.5139L18.3297 67.3407C18.859 65.896 19.3324 64.4208 19.9067 62.9984L21.7418 58.7892C22.3183 57.3614 23.0319 56.026 23.7312 54.681C24.4302 53.3348 25.0992 51.9664 25.907 50.7016C28.9099 45.4675 32.6194 40.7631 36.9909 36.7646L38.6402 35.2756L40.3827 33.8922C41.5241 32.942 42.7752 32.1243 43.9687 31.2334C46.4212 29.5258 48.9569 27.9242 51.468 26.2479C56.4839 22.9245 61.2606 19.0358 64.7325 14.0301Z" fill="#E0EAFF"/>
</g>
<mask id="mask6_5399_4628" style="mask-type:luminance" maskUnits="userSpaceOnUse" x="-8" y="8" width="105" height="133">
<path d="M96.7051 39.4876L54.2036 8.10223L-7.56576 109.503L34.9358 140.889L96.7051 39.4876Z" fill="white"/>
</mask>
<g mask="url(#mask6_5399_4628)">
<path d="M66.9785 17.5364C59.5872 26.8954 47.8176 30.5051 38.9573 38.4554C34.4468 42.2982 30.6519 46.9748 27.4676 52.0538C27.0403 52.6697 26.6524 53.3118 26.2964 53.9765L25.1924 55.9459L24.0953 57.9214L23.1098 59.9634L21.1426 64.0513L19.4244 68.2943C17.296 74.0291 15.4724 79.9859 14.7026 86.3227C13.9094 92.6282 13.8649 99.2071 15.0748 105.795C16.2341 112.375 18.636 118.904 22.0773 124.874C25.5556 130.825 29.9432 136.25 34.9367 140.89L31.5721 137.028C30.4918 135.711 29.4849 134.334 28.4418 132.996C27.8992 132.34 27.4839 131.595 27.0048 130.896L25.6154 128.772C25.1269 128.08 24.7505 127.325 24.3438 126.589L23.1341 124.378C20.0266 118.435 17.971 112.089 17.019 105.755C16.0829 99.414 16.1721 93.102 17.0753 87.0382C17.8854 80.9354 19.6794 75.1459 21.7951 69.5663L23.4467 65.403L25.35 61.3798L26.3028 59.3672L27.3625 57.4304L28.4268 55.4982L28.9563 54.5295L29.5367 53.5995C32.5271 48.5577 36.1524 44.0007 40.3714 40.0763C44.5819 36.1327 49.4414 32.937 54.2832 29.6341C59.1019 26.322 63.681 22.4644 66.9785 17.5364Z" fill="#E0EAFF"/>
</g>
<mask id="mask7_5399_4628" style="mask-type:luminance" maskUnits="userSpaceOnUse" x="-4" y="12" width="101" height="129">
<path d="M96.065 40.8653L57.1312 12.1111L-3.8461 112.235L35.0877 140.989L96.065 40.8653Z" fill="white"/>
</mask>
<g mask="url(#mask7_5399_4628)">
<path d="M69.2241 21.0419L67.8229 22.6585L67.1251 23.464C66.88 23.7199 66.6185 23.9608 66.3662 24.2094L64.8584 25.7026L63.2435 27.0733C61.0629 28.8653 58.7259 30.4496 56.3097 31.9408C53.921 33.4652 51.4836 34.9458 49.1186 36.557C46.7249 38.1263 44.484 39.9282 42.2965 41.7924C37.9513 45.5696 34.2552 50.0907 31.0603 54.9493C29.5191 57.4206 27.9913 59.9118 26.682 62.5346C26.0168 63.8397 25.2923 65.1079 24.6767 66.4466L22.8584 70.4829C22.2214 71.8098 21.7626 73.2436 21.2365 74.6345C20.7406 76.0438 20.155 77.4067 19.7759 78.8756L18.5141 83.2178L17.566 87.6976C16.5066 93.7351 16.092 100.052 16.9051 106.467C17.6681 112.867 19.6715 119.316 22.8309 125.225C26.023 131.119 30.2316 136.477 35.0868 140.989L31.8375 137.215C30.7977 135.928 29.8433 134.572 28.8455 133.259C28.3247 132.617 27.9424 131.882 27.4922 131.194L26.1892 129.105C25.7265 128.423 25.3916 127.676 25.0167 126.954L23.9116 124.777C21.0943 118.92 19.4349 112.691 18.865 106.547C18.3145 100.396 18.7566 94.3336 19.9184 88.5274L20.8814 84.2012L22.1394 79.9909C22.5135 78.5669 23.0987 77.2395 23.5892 75.8688C24.1135 74.5141 24.5702 73.1254 25.2001 71.8259L26.9529 67.8572C27.5467 66.54 28.2525 65.2887 28.8959 64.0002C30.1576 61.3997 31.6607 58.9805 33.1113 56.5236C36.1186 51.6869 39.6567 47.27 43.7191 43.4039C47.7939 39.5419 52.4438 36.3375 57.091 33.0381C61.71 29.7257 66.1046 25.9057 69.2241 21.0419Z" fill="#E0EAFF"/>
</g>
<mask id="mask8_5399_4628" style="mask-type:luminance" maskUnits="userSpaceOnUse" x="-1" y="16" width="97" height="126">
<path d="M95.4269 42.2449L59.9597 16.0455L-0.228475 114.89L35.2386 141.09L95.4269 42.2449Z" fill="white"/>
</mask>
<g mask="url(#mask8_5399_4628)">
<path d="M71.4701 24.5489L70.1353 26.1477L69.4694 26.9447L68.7416 27.6811C68.2553 28.1709 67.7927 28.6811 67.2968 29.1569L65.7563 30.5265C63.6537 32.294 61.4229 33.8917 59.0948 35.3769C54.4907 38.3996 49.7601 41.3962 45.6127 45.1644C41.429 48.8839 37.8175 53.2412 34.6074 57.885C31.4486 62.5806 28.6815 67.5298 26.2147 72.7049C25.013 75.3084 23.8841 77.9616 22.913 80.7028C21.931 83.4359 21.043 86.2256 20.3753 89.1126C19.0226 94.8659 18.2697 100.925 18.7111 107.156C19.0951 113.364 20.6883 119.72 23.5626 125.574C26.4631 131.413 30.5048 136.712 35.2386 141.09C33.053 138.705 31.0307 136.178 29.2326 133.525C27.441 130.866 25.9011 128.064 24.666 125.173C22.1439 119.404 20.8854 113.306 20.6806 107.362C20.5832 104.387 20.737 101.445 21.0703 98.5509C21.4216 95.6601 21.992 92.83 22.7018 90.0573C24.1034 84.5027 26.1284 79.1965 28.5227 74.1214C33.3251 63.9746 39.1829 54.3647 47.043 46.7677C50.9651 42.956 55.4441 39.7705 59.8913 36.4645C62.1075 34.8055 64.2512 33.0158 66.2398 31.0708C68.2613 29.1521 69.9378 26.8874 71.4701 24.5489Z" fill="#E0EAFF"/>
</g>
<mask id="mask9_5399_4628" style="mask-type:luminance" maskUnits="userSpaceOnUse" x="3" y="19" width="92" height="123">
<path d="M94.7823 43.6187L62.6943 19.9137L3.30006 117.484L35.3881 141.189L94.7823 43.6187Z" fill="white"/>
</mask>
<g mask="url(#mask9_5399_4628)">
<path d="M73.7115 28.0522L72.4423 29.6364C72.2286 29.8985 72.0259 30.1687 71.805 30.4216L71.1122 31.1548C70.6466 31.6389 70.2193 32.1593 69.7303 32.6171L68.2641 33.9875C66.2508 35.7471 64.0976 37.33 61.8714 38.8303C57.4459 41.8567 52.898 44.8501 48.9013 48.5558C44.8489 52.1907 41.3033 56.389 38.1025 60.8392C37.3182 61.9654 36.5322 63.0925 35.7743 64.2382C35.0464 65.4042 34.2868 66.5457 33.59 67.7356C32.1471 70.0781 30.8136 72.5043 29.5146 74.954C27.0079 79.913 24.781 85.0806 23.1593 90.5627C21.5734 96.0453 20.4884 101.824 20.5517 107.851C20.5578 113.847 21.7288 120.09 24.3056 125.89C26.9045 131.675 30.7784 136.929 35.3884 141.189C33.2653 138.86 31.3185 136.382 29.6203 133.77C27.9292 131.152 26.5151 128.387 25.4336 125.545C23.2136 119.864 22.3656 113.912 22.5232 108.185C22.6083 105.317 22.9319 102.495 23.4186 99.7253C23.9307 96.9627 24.6284 94.2619 25.4546 91.6204C27.0976 86.3284 29.2898 81.2857 31.7859 76.4437C34.2879 71.6111 37.0525 66.902 40.1093 62.4772C43.1346 58.0222 46.5473 53.8921 50.3392 50.153C54.1199 46.3956 58.4205 43.2116 62.682 39.9066C64.7971 38.2311 66.8562 36.4608 68.7562 34.5244C70.6669 32.5949 72.2769 30.374 73.7115 28.0522Z" fill="#E0EAFF"/>
</g>
<mask id="mask10_5399_4628" style="mask-type:luminance" maskUnits="userSpaceOnUse" x="6" y="23" width="89" height="119">
<path d="M94.1417 44.9925L65.2807 23.6691L6.6795 119.965L35.5404 141.288L94.1417 44.9925Z" fill="white"/>
</mask>
<g mask="url(#mask10_5399_4628)">
<path d="M75.9519 31.5539C74.3823 33.6882 72.6708 35.677 70.7739 37.4644C68.8467 39.2196 66.7712 40.7928 64.6413 42.3052C62.5139 43.8223 60.3679 45.3386 58.2501 46.9044C56.1546 48.5035 54.0882 50.1558 52.1491 51.9586C48.2137 55.5061 44.722 59.5459 41.5184 63.8034C39.9051 65.9311 38.3985 68.1258 36.943 70.3711C35.4752 72.6033 34.081 74.8978 32.7414 77.2317C30.1124 81.9356 27.746 86.8434 25.8901 92.0462C24.0898 97.2643 22.6956 102.756 22.3926 108.565C22.037 114.335 22.7774 120.442 25.0486 126.189C27.3357 131.921 31.0444 137.141 35.5389 141.288C33.4762 139.015 31.6009 136.581 30.0022 134.006C28.4109 131.428 27.1245 128.698 26.1989 125.904C24.2897 120.313 23.8544 114.526 24.3596 109.027C24.6204 106.272 25.0997 103.572 25.736 100.932C26.3927 98.2962 27.2147 95.7275 28.1482 93.2144C29.0849 90.7016 30.1446 88.2501 31.2758 85.8415C32.4315 83.4451 33.6625 81.0943 34.9725 78.795C37.5614 74.1813 40.4318 69.7281 43.4985 65.4774C46.534 61.1996 49.9057 57.2138 53.591 53.5518C55.4135 51.6965 57.3988 50.0169 59.3721 48.3167C61.3744 46.6457 63.4301 45.0301 65.4681 43.3686C67.4871 41.6823 69.4639 39.9242 71.2732 37.9928C73.0737 36.0479 74.6165 33.8652 75.9519 31.5539Z" fill="#E0EAFF"/>
</g>
<mask id="mask11_5399_4628" style="mask-type:luminance" maskUnits="userSpaceOnUse" x="9" y="27" width="85" height="115">
<path d="M93.5004 46.3673L67.6629 27.2751L9.85357 122.296L35.6911 141.388L93.5004 46.3673Z" fill="white"/>
</mask>
<g mask="url(#mask11_5399_4628)">
<path d="M78.1931 35.0555C76.7179 37.1836 75.0841 39.1589 73.2787 40.9469C71.4576 42.7223 69.4482 44.2784 67.4071 45.8012C65.3721 47.3315 63.2981 48.8349 61.2674 50.407C59.2249 51.9634 57.2678 53.6413 55.3555 55.3711C51.5224 58.8256 48.0693 62.7043 44.852 66.7692C41.6404 70.8373 38.6567 75.0907 35.8786 79.5227C33.1318 83.9748 30.6365 88.6346 28.5581 93.5569C26.5595 98.5154 24.8812 103.719 24.2314 109.297C23.5325 114.831 23.8407 120.777 25.7925 126.468C27.7578 132.146 31.3028 137.349 35.6905 141.388C33.683 139.165 31.8783 136.771 30.3791 134.232C28.8863 131.69 27.7326 128.992 26.9658 126.248C25.3747 120.751 25.3501 115.15 26.184 109.887C27.0331 104.607 28.6962 99.5942 30.7735 94.8326C32.8653 90.0716 35.3252 85.5154 38.0646 81.1608C40.7542 76.7713 43.7034 72.5519 46.8019 68.4833C49.8589 64.3832 53.2026 60.5414 56.7993 56.9608C60.4001 53.3803 64.3337 50.1655 68.2522 46.8515C70.1776 45.1561 72.0847 43.4155 73.7875 41.4664C75.4946 39.5206 76.955 37.3558 78.1931 35.0555Z" fill="#E0EAFF"/>
</g>
<mask id="mask12_5399_4628" style="mask-type:luminance" maskUnits="userSpaceOnUse" x="12" y="30" width="81" height="112">
<path d="M92.8658 47.7445L69.8277 30.7127L12.8027 124.456L35.8407 141.488L92.8658 47.7445Z" fill="white"/>
</mask>
<g mask="url(#mask12_5399_4628)">
<path d="M80.4326 38.5552C79.0527 40.6808 77.5062 42.6546 75.7853 44.4441C74.0654 46.2372 72.1362 47.7985 70.1732 49.3229C66.2552 52.3796 62.2224 55.3841 58.5215 58.7923C54.7918 62.1674 51.3411 65.8605 48.0941 69.728C44.8528 73.5897 41.8036 77.633 38.9128 81.8152C36.0605 86.0268 33.4273 90.433 31.1628 95.0949C28.9611 99.7863 27.0387 104.713 26.0568 110.049C25.0382 115.338 24.9184 121.098 26.5408 126.729C28.1692 132.347 31.5519 137.55 35.842 141.488C33.8864 139.313 32.1468 136.954 30.7482 134.447C29.3543 131.936 28.3364 129.27 27.7332 126.58C26.4712 121.183 26.8478 115.786 27.9876 110.762C29.1532 105.726 31.0544 100.974 33.3311 96.4716C35.6062 91.9631 38.2054 87.6496 41.0505 83.5267C43.8576 79.3738 46.8669 75.3683 50.0078 71.4848C53.1049 67.5689 56.4583 63.898 59.9632 60.3845C63.4879 56.8876 67.288 53.6933 71.0345 50.3584C72.8801 48.6641 74.7059 46.9185 76.3041 44.9522C77.9232 43.0073 79.2935 40.8469 80.4326 38.5552Z" fill="#E0EAFF"/>
</g>
<mask id="mask13_5399_4628" style="mask-type:luminance" maskUnits="userSpaceOnUse" x="15" y="33" width="78" height="109">
<path d="M92.2169 49.1104L71.7011 33.9456L15.4728 126.423L35.9887 141.588L92.2169 49.1104Z" fill="white"/>
</mask>
<g mask="url(#mask13_5399_4628)">
<path d="M82.6664 42.0499C81.3882 44.1819 79.929 46.1612 78.2842 47.9469C76.6364 49.7304 74.8327 51.3463 72.9381 52.8692L67.2379 57.4524C65.336 58.9926 63.4705 60.5845 61.6468 62.2262C54.3368 68.8012 47.8286 76.2194 41.8345 84.0957C38.9075 88.0965 36.1004 92.2196 33.6814 96.6415C32.4634 98.8437 31.3673 101.137 30.3655 103.486C29.352 105.828 28.5131 108.283 27.8626 110.821C26.5481 115.862 26.0155 121.408 27.2914 126.972C27.938 129.734 29.0242 132.453 30.5292 134.929C32.0246 137.413 33.9087 139.64 35.9889 141.587C34.0788 139.458 32.4065 137.125 31.1223 134.642C29.8385 132.159 28.9455 129.532 28.5036 126.898C27.5741 121.609 28.3414 116.434 29.7629 111.653C31.2213 106.862 33.3387 102.365 35.7966 98.1169C38.2233 93.8412 40.9985 89.7985 43.9196 85.8824C46.8292 81.9519 49.9328 78.1805 53.1159 74.4809C56.2878 70.7769 59.6219 67.2373 63.0816 63.8243C66.5436 60.4129 70.2238 57.2341 73.8177 53.8935C75.598 52.2079 77.3299 50.4361 78.838 48.4652C80.3567 46.5031 81.6268 44.3374 82.6664 42.0499Z" fill="#E0EAFF"/>
</g>
<mask id="mask14_5399_4628" style="mask-type:luminance" maskUnits="userSpaceOnUse" x="17" y="36" width="75" height="106">
<path d="M91.5799 50.4813L73.3212 36.9829L17.8768 128.188L36.1356 141.686L91.5799 50.4813Z" fill="white"/>
</mask>
<g mask="url(#mask14_5399_4628)">
<path d="M84.907 45.5485C83.7323 47.6902 82.3744 49.6884 80.8181 51.4876C79.2607 53.287 77.5286 54.9077 75.7169 56.4448C72.0949 59.522 68.3086 62.4629 64.7226 65.6519C57.5172 71.9992 50.8258 78.9196 44.6588 86.3681C41.6169 90.1296 38.7034 94.0236 36.1153 98.1918C34.8225 100.275 33.6131 102.427 32.5178 104.658C31.9548 105.762 31.4541 106.91 30.9531 108.055C30.4959 109.229 30.0266 110.394 29.6451 111.61C28.0615 116.405 27.1359 121.714 28.0526 127.196C28.5249 129.918 29.4657 132.63 30.8739 135.096C32.2704 137.57 34.098 139.779 36.135 141.686C34.2693 139.597 32.6579 137.29 31.4784 134.831C30.2968 132.374 29.5517 129.778 29.2784 127.206C28.6952 122.033 29.8284 117.096 31.5099 112.556C32.3625 110.279 33.3852 108.085 34.5094 105.957C35.6267 103.824 36.8584 101.761 38.1751 99.7611C40.7671 95.7294 43.6506 91.9092 46.6862 88.2262C49.6852 84.5073 52.873 80.9527 56.1233 77.4591C59.36 73.9496 62.715 70.57 66.1446 67.2615C69.5811 63.959 73.1581 60.8059 76.6118 57.4558C78.3117 55.7519 79.9697 53.9774 81.3836 51.9918C82.8107 50.0159 83.975 47.8389 84.907 45.5485Z" fill="#E0EAFF"/>
</g>
<mask id="mask15_5399_4628" style="mask-type:luminance" maskUnits="userSpaceOnUse" x="20" y="39" width="71" height="103">
<path d="M90.9345 51.8458L74.6712 39.8218L20.016 129.759L36.2792 141.783L90.9345 51.8458Z" fill="white"/>
</mask>
<g mask="url(#mask15_5399_4628)">
<path d="M87.1378 49.039C86.0747 51.1984 84.8297 53.2263 83.3659 55.0469C81.9021 56.8675 80.2444 58.4993 78.496 60.0362C76.7578 61.5857 74.9565 63.0716 73.1415 64.5524C71.3265 66.0312 69.5339 67.5464 67.7371 69.0564C60.569 75.1277 53.7081 81.5834 47.3588 88.6005C41.1091 95.6753 35.1715 103.273 31.394 112.412C30.4809 114.705 29.6967 117.085 29.2183 119.594C28.7451 122.101 28.563 124.735 28.8389 127.409C29.1244 130.078 29.8984 132.785 31.2119 135.247C32.507 137.718 34.2826 139.914 36.2795 141.783C34.4538 139.732 32.902 137.444 31.8285 135.007C30.748 132.572 30.1688 130.007 30.0734 127.503C29.8347 122.463 31.2936 117.767 33.2168 113.465C35.1865 109.161 37.6877 105.162 40.452 101.388C43.207 97.6015 46.1823 93.9866 49.3256 90.5296C52.4299 87.0339 55.6879 83.6815 59.0059 80.3873C62.3095 77.0766 65.7224 73.8812 69.1391 70.6828C72.5645 67.4948 76.0841 64.4011 79.4044 61.0334C81.0419 59.3283 82.6255 57.5409 83.9451 55.5335C85.2751 53.5368 86.3213 51.3372 87.1378 49.039Z" fill="#E0EAFF"/>
</g>
<mask id="mask16_5399_4628" style="mask-type:luminance" maskUnits="userSpaceOnUse" x="21" y="42" width="70" height="100">
<path d="M90.2949 53.2138L75.7903 42.489L21.9177 131.157L36.4223 141.882L90.2949 53.2138Z" fill="white"/>
</mask>
<g mask="url(#mask16_5399_4628)">
<path d="M89.3734 52.531C88.4314 54.7132 87.3168 56.7867 85.9482 58.6328C84.5769 60.4779 82.9988 62.1294 81.301 63.6568C77.9153 66.725 74.2624 69.5244 70.6975 72.4372C67.1028 75.3172 63.5695 78.2723 60.0719 81.2943C56.5967 84.3388 53.2182 87.5033 49.9444 90.7868C43.5118 97.4458 37.3317 104.564 33.1086 113.226C32.0819 115.401 31.1652 117.659 30.5295 120.058C29.9102 122.461 29.5443 124.997 29.6432 127.612C29.7572 130.222 30.345 132.916 31.5476 135.382C32.7365 137.854 34.462 140.045 36.423 141.882C34.6332 139.863 33.1386 137.588 32.1774 135.17C31.2127 132.753 30.815 130.224 30.882 127.795C30.9866 122.898 32.7437 118.45 34.8846 114.378C37.0777 110.31 39.7468 106.548 42.636 102.99C45.5301 99.431 48.6214 96.0412 51.847 92.7844C58.2554 86.2194 65.1794 80.1949 72.0715 74.0885C75.5163 71.0364 78.9919 68 82.2189 64.6434C83.81 62.946 85.3172 61.1321 86.5396 59.1008C87.7743 57.0775 88.6818 54.842 89.3734 52.531Z" fill="#E0EAFF"/>
</g>
<mask id="mask17_5399_4628" style="mask-type:luminance" maskUnits="userSpaceOnUse" x="23" y="45" width="70" height="100">
<path d="M92.9098 56.9685L76.8635 45.1053L23.7407 132.516L39.787 144.379L92.9098 56.9685Z" fill="white"/>
</mask>
<g mask="url(#mask17_5399_4628)">
<path d="M91.6429 56.0321C90.775 58.2211 89.7412 60.2973 88.4552 62.1465C87.1578 63.9863 85.6345 65.6185 83.9775 67.1181C82.34 68.6382 80.5935 70.0548 78.816 71.4387C77.062 72.8519 75.2607 74.2191 73.4618 75.5892C66.2871 81.0828 59.1194 86.7428 52.4845 92.9938C45.8973 99.278 39.5655 106.007 34.9234 114.164C32.6758 118.25 30.7821 122.772 30.5905 127.86C30.4943 130.383 30.9129 133.037 31.9645 135.5C32.9989 137.974 34.6652 140.17 36.5684 142C34.7797 140.041 33.3219 137.772 32.4597 135.362C31.5953 132.95 31.3536 130.448 31.5606 128.074C32.016 123.306 33.9997 119.055 36.3644 115.203C38.7576 111.344 41.5868 107.802 44.629 104.475C47.6532 101.128 50.8789 97.9707 54.2176 94.9412C57.5553 91.9079 60.9748 88.9618 64.4868 86.1236L75.1048 77.657C78.59 74.7475 82.1151 71.8597 85.2401 68.4524C86.7813 66.7365 88.2322 64.8884 89.3206 62.7834C90.438 60.6987 91.1605 58.3913 91.6429 56.0321Z" fill="#E0EAFF"/>
</g>
</g>
</svg>
