<svg width="14" height="14" viewBox="0 0 14 14" fill="none" xmlns="http://www.w3.org/2000/svg">
<path d="M7.73925 2.4554C7.56429 2.28875 7.28736 2.29548 7.12071 2.47044C6.95406 2.6454 6.9608 2.92232 7.13575 3.08897L10.7824 6.5625H2.1875C1.94588 6.5625 1.75 6.75838 1.75 7C1.75 7.24162 1.94588 7.4375 2.1875 7.4375H10.7825L7.13575 10.9111C6.9608 11.0777 6.95406 11.3547 7.12071 11.5296C7.28736 11.7046 7.56429 11.7113 7.73925 11.5447L12.067 7.42241C12.1655 7.32855 12.2238 7.20883 12.2419 7.08437C12.2472 7.05707 12.25 7.02886 12.25 7C12.25 6.97108 12.2472 6.94282 12.2418 6.91547C12.2237 6.79109 12.1654 6.67145 12.067 6.57764L7.73925 2.4554Z" fill="white"/>
</svg>
