<svg width="16" height="16" viewBox="0 0 16 16" fill="none" xmlns="http://www.w3.org/2000/svg">
<path d="M13.1696 7.3335C13.4227 7.3335 13.6319 7.5216 13.665 7.76565L13.6696 7.8335V12.5007C13.6696 13.6561 12.7653 14.6002 11.6259 14.664L11.5029 14.6674H4.1696C3.01424 14.6674 2.0701 13.7631 2.00636 12.6237L2.00293 12.5007V7.8335C2.00293 7.55735 2.22679 7.3335 2.50293 7.3335C2.75606 7.3335 2.96526 7.5216 2.99837 7.76565L3.00293 7.8335V12.5007C3.00293 13.1129 3.47434 13.6149 4.07391 13.6635L4.1696 13.6674H11.5029C12.115 13.6674 12.6171 13.196 12.6657 12.5964L12.6696 12.5007V7.8335C12.6696 7.55735 12.8935 7.3335 13.1696 7.3335ZM4.14653 4.81103L7.47735 1.47996C7.65476 1.30254 7.93235 1.2863 8.1281 1.43131L8.18418 1.47965L11.5208 4.81073C11.7162 5.00583 11.7164 5.32241 11.5213 5.51783C11.344 5.69549 11.0662 5.71186 10.8703 5.56678L10.8142 5.51841L8.33226 3.04083L8.33285 10.8368C8.33285 11.0899 8.14475 11.2991 7.9007 11.3322L7.83285 11.3368C7.57972 11.3368 7.37053 11.1487 7.33742 10.9046L7.33285 10.8368L7.33226 3.03883L4.85366 5.51811C4.67616 5.69563 4.39838 5.71178 4.20264 5.56655L4.14655 5.51814C3.96904 5.34063 3.95289 5.06286 4.09812 4.86711L4.14653 4.81103L7.47735 1.47996L4.14653 4.81103Z" fill="#98A2B3"/>
</svg>
